# xmcd
#
# Track frame offsets: 
#        150
#        15711
#        30305
#        45625
#        56598
#        72224
#        85254
#        96723
#        108782
#        120046
#        143191
#        159425
#
# Disc length: 2239 seconds
#
# Revision: 0
# Processed by: cddbd v1.5.1PL0 Copyright (c) Steve Scherf et al.
# Submitted via: ExactAudioCopy v0.95a5
#
DISCID=9108bd0c
DTITLE=B.B. King - B.B. Buenísimo
DYEAR=1995
DGENRE=Blues
TTITLE0=How blue can you get
TTITLE1=Mr. Pawnbroker
TTITLE2=It's my own fault baby
TTITLE3=Catfish blues
TTITLE4=The letter
TTITLE5=Walking and crying
TTITLE6=Shake it up and go
TTITLE7=Paying the cost to be the boss
TTITLE8=She's dynamite
TTITLE9=You've done lost your good thing now
TTITLE10=The other night blues
TTITLE11=A new way of driving
EXTD=
EXTT0=
EXTT1=
EXTT2=
EXTT3=
EXTT4=
EXTT5=
EXTT6=
EXTT7=
EXTT8=
EXTT9=
EXTT10=
EXTT11=
PLAYORDER=
